<svg viewBox="0 0 64 64" xmlns="http://www.w3.org/2000/svg" id="technology">
  <path d="m 23.579,35.025 c 4.279,1.581 11.687,1.523 16.226,-0.01 5.762,-1.911 2.263,-3.686 -0.906,-4.697 0.858,-0.254 2.581,-0.754 2.581,-0.754 0.381,0.192 2.966,1.461 2.994,3.28 0.142,8.528 0.212,25.673 0.212,25.673 0,4.502 -14.395,6.398 -21.218,3.371 -1.106,-0.543 -3.873,-2.113 -3.861,-4.097 -0.09,-8.28 -0.325,-24.856 -0.325,-24.856 0.03,-2.343 3.368,-4.613 9.662,-5.111 0.467,0.447 0.719,0.992 0.972,1.54 -6.578,0.359 -12.791,3.384 -6.337,5.661 z m -1.779,-14.471 c 0.924,0.988 2.747,2.969 2.747,2.969 -5.197,5.462 -10.12,11.174 -15.1371,16.8 -1.148,1.292 -5.049,-0.582 -2.5869,-3.19 4.944,-5.385 9.855,-11.164 14.977,-16.579 z m 17.258,-2.366 c 0.63,0.235 1.886,0.701 1.886,0.701 -1.536,2.874 -4.5,8.667 -4.5,8.667 0.854,-3.136 1.724,-6.255 2.614,-9.368 z m 7.438,5.566 c 0.309,0.634 0.923,1.904 0.923,1.904 -3.252,1.01 -9.622,3.001 -9.622,3.001 2.955,-1.716 5.641,-3.204 8.699,-4.905 z m -20.196,-8.91 c 1.214,1.205 3.604,3.611 3.604,3.611 0.07,0.05 0.128,0.261 -0.02,0.419 -0.173,0.138 -0.517,0.416 -0.517,0.416 3.682,4.653 5.274,10.131 4.979,15.164 -1.533,-4.312 -3.992,-8.645 -7.399,-12.673 -0.363,0.399 -1.085,1.202 -1.085,1.202 -0.144,0.161 -0.281,0.18 -0.406,-0.08 -1.146,-1.159 -3.476,-3.474 -3.476,-3.474 -0.127,-0.115 -0.116,-0.39 0.02,-0.55 0.346,-0.356 1.043,-1.063 1.043,-1.063 -3.611,-3.221 -7.415,-5.381 -11.096,-6.383 4.391,-0.881 9.211,0.472 13.574,3.872 0.142,-0.113 0.427,-0.338 0.427,-0.338 0.216,-0.237 0.349,-0.121 0.349,-0.121 z m 12.835,40.771 c 1.443,0.151 1.876,3.12 -0.08,3.125 -1.541,-0.187 -1.615,-3.1 0.08,-3.125 z m -0.01,-8.359 c 1.315,-0.06 1.916,2.649 0.02,2.941 -1.812,-0.111 -1.607,-3.205 -0.02,-2.941 z m 1.164,-7.013 c 0.231,1.773 -2.597,1.712 -2.48,-0.06 -0.229,-1.736 2.615,-1.911 2.48,0.06 z m 2.603,11.922 c -4.071,3.015 -17.162,3.738 -21.905,-0.251 0.01,1.926 0.03,5.775 0.03,5.775 0.611,2.983 11.394,5.081 18.901,2.638 1.314,-0.565 3.042,-0.831 3.054,-3.012 -0.02,-1.719 -0.05,-3.435 -0.08,-5.15 z m -21.862,-2.947 c 0.54,2.914 11.377,4.892 18.915,2.401 1.867,-0.694 3.096,-1.411 2.927,-2.308 0,-1.842 0.02,-5.524 0.02,-5.524 -4.263,3.084 -17.349,3.675 -21.963,-0.08 0,0 0.103,5.518 0.103,5.514 z m -0.06,-8.128 c 0.543,2.772 11.325,4.847 18.885,2.204 1.949,-0.657 3.105,-1.48 3.079,-2.184 -0.02,-1.855 -0.07,-5.561 -0.07,-5.561 -4.535,3.088 -17.513,3.413 -22.06,-0.01 0,0 0.168,5.56 0.167,5.555 z" style="fill: var(--color-logo-fill, #111);"/>
  <path d="m 12.215,18.282 v -3.564 h 2.85 v 3.564 h 3.71 v 2.7 h -3.68 v 3.564 h -2.84 v -3.564 h -3.7101 v -2.7 z" style="fill: #47c000;"/>
  <path d="m 20.984,4.2041 v -3.56401 h 2.85 v 3.56401 h 3.714 v 2.7 h -3.684 v 3.5639 h -2.84 v -3.5639 h -3.71 v -2.7 z" style="fill: #47c000;"/>
  <path d="m 46.827,16.128 v -3.564 h 2.85 v 3.564 h 3.72 v 2.696 h -3.69 v 3.573 h -2.84 v -3.573 h -3.71 v -2.696 z" style="fill: #47c000;" />
  <path d="m 33.218,12.052 v -3.5639 h 2.85 v 3.5639 h 3.71 v 2.7 h -3.68 v 3.564 h -2.84 v -3.564 h -3.71 v -2.7 z" style="fill: #47c000;" />
  <path d="m 52.117,61.027 c 0.87,0 1.44,-0.607 1.44,-1.53 v -5.985 l -0.1,-1.45 0.56,0.712 1.57,1.582 c 0.26,0.272 0.58,0.483 1.03,0.483 0.77,0 1.36,-0.554 1.36,-1.38 0,-0.378 -0.16,-0.738 -0.45,-1.028 l -4.39,-4.386 c -0.24,-0.246 -0.66,-0.404 -1.05,-0.404 -0.39,0 -0.81,0.158 -1.062,0.404 l -4.371,4.386 c -0.29,0.29 -0.448,0.65 -0.448,1.028 0,0.826 0.588,1.38 1.353,1.38 0.457,0 0.773,-0.211 1.037,-0.483 l 1.556,-1.582 0.565,-0.712 -0.1,1.45 v 5.985 c 0,0.923 0.568,1.53 1.44,1.53 z" style="fill: #0013ff;"/>
  <path d="m 51.657,45.873 c 0.87,0 1.44,-0.607 1.44,-1.53 v -5.985 l -0.1,-1.45 0.56,0.712 1.57,1.582 c 0.26,0.272 0.58,0.483 1.03,0.483 0.77,0 1.36,-0.554 1.36,-1.38 0,-0.378 -0.16,-0.738 -0.45,-1.028 l -4.39,-4.386 c -0.24,-0.246 -0.66,-0.404 -1.05,-0.404 -0.392,0 -0.812,0.158 -1.06,0.404 l -4.374,4.386 c -0.29,0.29 -0.448,0.65 -0.448,1.028 0,0.826 0.588,1.38 1.353,1.38 0.457,0 0.773,-0.211 1.037,-0.483 l 1.56,-1.582 0.56,-0.712 -0.1,1.45 v 5.985 c 0,0.923 0.572,1.53 1.442,1.53 z" style="fill: #0013ff;"/>
  <path d="m 12.5,59.104 c 0.872,0 1.442,-0.607 1.442,-1.53 v -5.985 l -0.1,-1.45 0.56,0.712 1.57,1.582 c 0.26,0.272 0.58,0.483 1.03,0.483 0.77,0 1.36,-0.554 1.36,-1.38 0,-0.378 -0.16,-0.738 -0.45,-1.028 l -4.39,-4.386 c -0.24,-0.246 -0.66,-0.404 -1.051,-0.404 -0.386,0 -0.808,0.158 -1.054,0.404 l -4.3771,4.386 c -0.2899,0.29 -0.4479,0.65 -0.4479,1.028 0,0.826 0.5879,1.38 1.3529,1.38 0.457,0 0.773,-0.211 1.037,-0.483 l 1.5561,-1.582 0.562,-0.712 -0.07,1.45 v 5.985 c 0,0.923 0.571,1.53 1.441,1.53 z" style="fill: #0013ff;"/>
</svg>
