<svg viewBox="0 0 64 64" xmlns="http://www.w3.org/2000/svg" id="technology">
  <path style="fill: var(--color-logo-fill, #111);" d="
    m  39.8  35
    c   5.8, -1.9   2.3, -3.7  -0.9, -4.7    0.9,-0.3   2.6,  -0.8   2.6, -0.8   0.4,  0.2   3     1.5   3     3.3
        0.1,  8.5   0.2, 25.7   0.2, 25.7    0,   6.4 -25.1,   6.6 -25.1, -0.7 L19.3, 32.9
    c   0,   -2.3   3.4, -4.6   9.7, -5.1 l  1  , 1.5
    c  -6.6,  0.4 -12.8,  3.4  -6.3,  5.7    4.2, 1.6  11.7,   1.5  16.1,  0   z
    m -17.9,-14.5   2.7,  3
    C  19.4, 29    14.5, 34.7   9.5, 40.3    8.3,41.6   4.4,  39.7   6.9, 37.1 c 4.9, -5.4   9.9,-11.2  15,  -16.6
    m  17.3, -2.4 c 0.6,  0.2   1.9,  0.7    1.9,  0.7 l-4.5,   8.7 c 0.9, -3.1   1.7, -6.3   2.6, -9.4
    m   7.4,  5.6
    c   0.3,  0.6   0.9,  1.9   0.9,  1.9   -3.3, 1    -9.6,   3    -9.6,  3     3,   -1.7   5.6, -3.2   8.7, -4.9
    M  30,   18.4 c 0.1,  0.1   0.1,  0.3    0,    0.4 l-0.5,   0.4
    c   3.7,  4.7   5.3, 10.1   5,   15.2   -1.5,-4.3  -4,    -8.6  -7.4,-12.7  -0.4,  0.4  -1.1,  1.2  -1.1,  1.2
       -0.1,  0.1  -0.2,  0.1  -0.4, -0.1   -1.1,-1.2  -3.5,  -3.5  -3.5, -3.5  -0.2, -0.2  -0.1, -0.4   0,   -0.6
        0.3, -0.4   1,   -1.1   1,   -1.1   -3.6,-3.2  -7.4,  -5.4 -11.1, -6.4   4.4, -0.9   9.2,  0.5  13.6,  3.9
    L  26,   14.8 c 0.2, -0.2   0.3, -0.1    0.3,-0.1
    M  39,   58.5 c-2,    0    -2,   -3      0,  -3     2,     0     2,    3     0,    3     z
    M  39,   47   c 2,    0     2,    3      0,   3    -2,     0    -2,   -3     0,   -3     z
    m   0,   -8.2 c 2,    0     2,    3      0,   3    -2,     0,   -2,   -3     0,   -3     z
    M  42.9, 52   C38.8, 55    25.7, 55.7   21,  51.7 v 5.8 c  0.9,  4.5  21.7,  5.4  22,   -0.4
    M  21,   49   c 0.8,  4.9  22,    4.1   22,   0.2 v-5.5 c -4.3,  3.1 -17.5,  3.4 -22.1,  0
    m   0,   -2.6
    c   0.9,  5    22,    3.8  22,    0       0, -1.8   0,    -5.5  -0.1, -5.6
       -4.5,  3.1 -17.5,  3.4 -22.1,  0       0,   0    0.1,   5.5   0.2   5.6
  "/>
  <path style="fill: #47c000;" d="
    M 12, 18 v -3.7 h 2.7 v 3.7 h 3.7 v 2.7 h -3.7 v 3.7 h -2.7 v -3.7 h -3.7 v -2.7 h 3.7
    M 21,  4 v -3.7 h 2.7 v 3.7 h 3.7 v 2.7 h -3.7 v 3.7 h -2.7 v -3.7 h -3.7 v -2.7 h 3.7
    M 47, 16 v -3.7 h 2.7 v 3.7 h 3.7 v 2.7 h -3.7 v 3.7 h -2.7 v -3.7 h -3.7 v -2.7 h 3.7
    M 33, 12 v -3.7 h 2.7 v 3.7 h 3.7 v 2.7 h -3.7 v 3.7 h -2.7 v -3.7 h -3.7 v -2.7 h 3.7
  "/>
  <path style="fill: #0013ff;" d="
    M 52,61     c  0.8, 0     1.4,-0.6    1.4,-1.4 v -6        l -0.1,-1.5   0.6, 0.7   1.6, 1.6
    c              0.3, 0.3   0.6, 0.5    1,   0.5    0.8, 0      1.4,-0.6   1.4,-1.4   0,  -0.4  -0.2,-0.7  -0.5,-1
    l -4.4,-4.4 c -0.3,-0.3  -0.7,-0.5   -1  ,-0.5   -0.4, 0     -0.8, 0.2  -1  , 0.5
    l -4.4, 4.4 c -0.3, 0.3  -0.5, 0.7   -0.5, 1      0,   0.8    0.6, 1.4   1.4, 1.4   0.4, 0     0.7,-0.2   1,  -0.5
    l  1.6,-1.6    0.6,-0.7   0,   1.5 v  6        c  0,   0.8    0.6, 1.4   1.4, 1.4

    M 52,46     c  0.8, 0     1.4,-0.6    1.4,-1.4 v -6        l -0.1,-1.5   0.6, 0.7   1.6, 1.6
    c              0.3, 0.3   0.6, 0.5    1,   0.5    0.8, 0      1.4,-0.6   1.4,-1.4   0,  -0.4  -0.2,-0.7  -0.5,-1
    l -4.4,-4.4 c -0.3,-0.3  -0.7,-0.5   -1  ,-0.5   -0.4, 0     -0.8, 0.2  -1  , 0.5
    l -4.4, 4.4 c -0.3, 0.3  -0.5, 0.7   -0.5, 1      0,   0.8    0.6, 1.4   1.4, 1.4   0.4, 0     0.7,-0.2   1,  -0.5
    l  1.6,-1.6    0.6,-0.7   0,   1.5 v  6        c  0,   0.8    0.6, 1.4   1.4, 1.4

    M 12,57     c  0.8, 0     1.4,-0.6    1.4,-1.4 v -6        l -0.1,-1.5   0.6, 0.7   1.6, 1.6
    c              0.3, 0.3   0.6, 0.5    1,   0.5    0.8, 0      1.4,-0.6   1.4,-1.4   0,  -0.4  -0.2,-0.7  -0.5,-1
    l -4.4,-4.4 c -0.3,-0.3  -0.7,-0.5   -1  ,-0.5   -0.4, 0     -0.8, 0.2  -1  , 0.5
    l -4.4, 4.4 c -0.3, 0.3  -0.5, 0.7   -0.5, 1      0,   0.8    0.6, 1.4   1.4, 1.4   0.4, 0     0.7,-0.2   1,  -0.5
    l  1.6,-1.6    0.6,-0.7   0,   1.5 v  6        c  0,   0.8    0.6, 1.4   1.4, 1.4
  "/>
</svg>
